#!OML:ASF I:\Actors\actors\Patient Classification 2\Patient 1\Session 1\actor1.ASF
:FULLY-SPECIFIED
:DEGREES
472
root -0.556968 18.7345 5.73871 3.79233 -3.46171 -3.61397
lowerback 3.67578 2.10411 -3.40941
upperback 0.255427 2.63461 -1.33159
thorax -1.88819 1.33619 0.401044
lowerneck -13.714 -2.63117 -1.28096
upperneck 33.9242 -5.0124 4.23731
head 13.9952 -1.77667 1.13381
rclavicle 8.44835e-015 1.27222e-014
rhumerus -19.45 39.3993 -93.7918
rradius 84.3894
rwrist 14.9906
rhand -9.65388 -63.9253
rfingers 7.12502
rthumb 16.3169 -266.741
lclavicle 8.44835e-015 1.27222e-014
lhumerus -9.87921 -30.5739 85.423
lradius 79.6317
lwrist -5.16615
lhand 15.4493 -25.7005
lfingers 7.12502
lthumb 40.2744 -0.55778
rfemur 0 0 0
rtibia 0
rfoot 0 0
rtoes 0
lfemur -6.37101 -6.71206 -11.1469
ltibia 23.0835
lfoot -25.2948 16.8329
ltoes -54.0098
473
root -0.52732 18.7404 5.7216 4.11327 -3.90882 -3.63905
lowerback 3.54951 2.20864 -2.97566
upperback 0.175948 2.79317 -1.44252
thorax -1.87803 1.412 0.0403968
lowerneck -13.749 -2.62076 -1.31773
upperneck 33.8569 -4.97601 4.21921
head 13.9716 -1.76869 1.13754
rclavicle -6.27166e-014 2.94201e-014
rhumerus -20.0079 39.5001 -94.0573
rradius 85.3692
rwrist 14.949
rhand -9.93751 -63.8848
rfingers 7.12502
rthumb 16.0438 -266.759
lclavicle -6.27166e-014 2.94201e-014
lhumerus -9.74203 -30.4565 85.2977
lradius 79.694
lwrist -5.02767
lhand 15.522 -25.6037
lfingers 7.12502
lthumb 40.3428 -0.481976
rfemur 0 0 0
rtibia 0
rfoot 0 0
rtoes 0
lfemur -6.72534 -6.95759 -11.2952
ltibia 23.1374
lfoot -25.6371 17.4253
ltoes -53.8348
474
root -0.527138 18.741 5.72062 4.03189 -3.80939 -3.66234
lowerback 3.72279 2.17411 -2.84156
upperback 0.182339 2.74461 -1.4923
thorax -1.95861 1.38707 -0.0896264
lowerneck -13.724 -2.61214 -1.34416
upperneck 33.894 -4.95093 4.20259
head 13.9817 -1.76341 1.14021
rclavicle -4.8901e-014 0
rhumerus -20.7373 39.3451 -94.5244
rradius 86.4036
rwrist 15.1478
rhand -10.142 -63.5817
rfingers 7.12502
rthumb 15.8469 -267.047
lclavicle -4.8901e-014 0
lhumerus -9.76572 -30.4152 85.1718
lradius 79.8047
lwrist -4.91304
lhand 15.533 -25.4609
lfingers 7.12502
lthumb 40.3531 -0.34235
rfemur 0 0 0
rtibia 0
rfoot 0 0
rtoes 0
lfemur -6.69608 -6.95407 -11.2629
ltibia 23.1925
lfoot -25.6026 17.3233
ltoes -53.8009
475
root -0.543411 18.7384 5.72748 3.78998 -3.44666 -3.72761
lowerback 3.86444 2.05558 -2.91772
upperback 0.29683 2.58179 -1.43431
thorax -1.92293 1.30556 0.0187435
lowerneck -13.6807 -2.59182 -1.47254
upperneck 33.9485 -4.90548 4.25937
head 14.0001 -1.75262 1.19408
rclavicle -3.0911e-014 -1.59028e-015
rhumerus -21.3252 39.0238 -94.9409
rradius 87.2179
rwrist 15.552
rhand -9.74638 -63.4062
rfingers 7.12502
rthumb 16.2279 -267.253
lclavicle -3.0911e-014 -1.59028e-015
lhumerus -9.75569 -30.326 85.0792
lradius 79.8754
lwrist -4.86513
lhand 15.4309 -25.3776
lfingers 7.12502
lthumb 40.2571 -0.229632
rfemur 0 0 0
rtibia 0
rfoot 0 0
rtoes 0
lfemur -6.53592 -6.75753 -11.0793
ltibia 23.2816
lfoot -25.3489 16.8654
ltoes -53.9493
476
root -0.55452 18.738 5.73238 3.7459 -3.18175 -3.78669
lowerback 3.76203 1.95158 -2.92164
upperback 0.364808 2.45006 -1.4024
thorax -1.79423 1.2384 0.0667203
lowerneck -13.5625 -2.54001 -1.55863
upperneck 33.9548 -4.81587 4.29668
head 13.9762 -1.72195 1.23998
rclavicle 2.42517e-014 -6.36111e-015
rhumerus -21.7435 38.6369 -95.3292
rradius 87.5812
rwrist 15.6852
rhand -9.78763 -63.2822
rfingers 7.12502
rthumb 16.1881 -267.374
lclavicle 2.42517e-014 -6.36111e-015
lhumerus -9.75282 -30.2144 85.0313
lradius 79.8763
lwrist -4.86625
lhand 15.3635 -25.3898
lfingers 7.12502
lthumb 40.1937 -0.222448
rfemur 0 0 0
rtibia 0
rfoot 0 0
rtoes 0
lfemur -6.53524 -6.63817 -10.9247
ltibia 23.271
lfoot -25.0961 16.6251
ltoes -54.1402
477
root -0.527807 18.7437 5.71741 4.13454 -3.33673 -3.78551
lowerback 3.47995 1.94225 -2.41279
upperback 0.261886 2.46426 -1.56018
thorax -1.71387 1.24158 -0.371003
lowerneck -13.4893 -2.46283 -1.55169
upperneck 33.9639 -4.70545 4.30285
head 13.959 -1.67378 1.25971
rclavicle 1.59028e-014 2.22639e-014
rhumerus -21.8774 38.325 -95.6193
rradius 87.3737
rwrist 15.5502
rhand -10.7045 -63.0661
rfingers 7.12502
rthumb 15.3051 -267.52
lclavicle 1.59028e-014 2.22639e-014
lhumerus -9.69671 -30.1032 84.933
lradius 79.8002
lwrist -4.87776
lhand 15.3341 -25.4664
lfingers 7.12502
lthumb 40.166 -0.29065
rfemur 0 0 0
rtibia 0
rfoot 0 0
rtoes 0
lfemur -7.00104 -6.99314 -11.0376
ltibia 23.2509
lfoot -25.3134 17.1177
ltoes -53.9203
478
root -0.558483 18.7358 5.73374 3.65729 -2.6697 -3.72191
lowerback 3.54671 1.71246 -2.80227
upperback 0.535107 2.14881 -1.49657
thorax -1.48356 1.08324 -0.0689511
lowerneck -13.5114 -2.40723 -1.54359
upperneck 34.0132 -4.65426 4.37594
head 13.9864 -1.64011 1.29629
rclavicle 9.74045e-015 1.59028e-015
rhumerus -21.7699 38.0218 -95.783
rradius 86.769
rwrist 15.72
rhand -10.834 -63.1099
rfingers 7.12502
rthumb 15.1804 -267.467
lclavicle 9.74045e-015 1.59028e-015
lhumerus -9.57454 -30.0336 84.7914
lradius 79.6797
lwrist -4.87734
lhand 15.2377 -25.691
lfingers 7.12502
lthumb 40.0754 -0.487763
rfemur 0 0 0
rtibia 0
rfoot 0 0
rtoes 0
lfemur -6.54349 -6.85033 -10.9183
ltibia 23.2141
lfoot -24.9871 16.3779
ltoes -54.1099
479
root -0.572359 18.7335 5.73504 3.5955 -2.63124 -3.72974
lowerback 3.43111 1.69805 -2.98565
upperback 0.623578 2.13056 -1.46607
thorax -1.33545 1.07296 0.0710341
lowerneck -13.5967 -2.40586 -1.4797
upperneck 34.0597 -4.67192 4.36955
head 14.0254 -1.63844 1.2794
rclavicle -2.0773e-014 7.95139e-015
rhumerus -21.5559 37.7917 -95.7852
rradius 86.0097
rwrist 16.0604
rhand -10.1744 -63.5646
rfingers 7.12502
rthumb 15.8157 -267.061
lclavicle -2.0773e-014 7.95139e-015
lhumerus -9.44356 -30.0492 84.7247
lradius 79.5388
lwrist -4.8596
lhand 15.067 -25.9104
lfingers 7.12502
lthumb 39.9147 -0.658695
rfemur 0 0 0
rtibia 0
rfoot 0 0
rtoes 0
lfemur -6.45382 -6.68403 -10.848
ltibia 23.1943
lfoot -24.8701 16.2089
ltoes -54.2505
480
root -0.577942 18.7323 5.73403 3.56628 -2.62275 -3.73897
lowerback 3.38712 1.71611 -3.13106
upperback 0.661826 2.15312 -1.41114
thorax -1.27952 1.08395 0.2095
lowerneck -13.6994 -2.43884 -1.37142
upperneck 34.0875 -4.72703 4.2908
head 14.0579 -1.65655 1.21901
rclavicle -2.79292e-014 7.95139e-015
rhumerus -21.3119 37.7775 -95.6199
rradius 85.2565
rwrist 16.096
rhand -10.0153 -63.9661
rfingers 7.12502
rthumb 15.9689 -266.672
lclavicle -2.79292e-014 7.95139e-015
lhumerus -9.36824 -30.1286 84.7702
lradius 79.4433
lwrist -4.77244
lhand 14.9566 -25.9485
lfingers 7.12502
lthumb 39.8108 -0.665634
rfemur 0 0 0
rtibia 0
rfoot 0 0
rtoes 0
lfemur -6.40766 -6.59425 -10.8118
ltibia 23.1667
lfoot -24.735 16.1611
ltoes -54.3587
481
root -0.569457 18.733 5.72791 3.62542 -2.75162 -3.74565
lowerback 3.4354 1.77995 -3.11632
upperback 0.617654 2.23557 -1.38409
thorax -1.35467 1.12623 0.2225
lowerneck -13.7792 -2.47752 -1.35816
upperneck 34.0911 -4.80519 4.33508
head 14.0821 -1.68097 1.22131
rclavicle -1.39149e-015 -3.18055e-015
rhumerus -21.2143 37.8532 -95.5025
rradius 84.6964
rwrist 16.0033
rhand -10.1618 -63.8197
rfingers 7.12502
rthumb 15.8278 -266.807
lclavicle -1.39149e-015 -3.18055e-015
lhumerus -9.38515 -30.2093 84.8845
lradius 79.4351
lwrist -4.63538
lhand 14.9059 -25.9167
lfingers 7.12502
lthumb 39.7631 -0.619661
rfemur 0 0 0
rtibia 0
rfoot 0 0
rtoes 0
lfemur -6.46268 -6.70229 -10.8597
ltibia 23.1689
lfoot -24.8305 16.3687
ltoes -54.2165
482
root -0.543851 18.7366 5.71159 3.82711 -3.1176 -3.76196
lowerback 3.5653 1.90848 -2.85808
upperback 0.484742 2.40697 -1.39754
thorax -1.5574 1.21352 0.0487253
lowerneck -13.8637 -2.53371 -1.46263
upperneck 34.0854 -4.89196 4.42944
head 14.1087 -1.71757 1.26301
rclavicle 7.55382e-015 3.18055e-015
rhumerus -21.3339 37.9471 -95.5017
rradius 84.429
rwrist 16.1102
rhand -10.0837 -63.5641
rfingers 7.12502
rthumb 15.903 -267.069
lclavicle 7.55382e-015 3.18055e-015
lhumerus -9.43354 -30.2131 85.061
lradius 79.4517
lwrist -4.57106
lhand 14.8784 -25.9232
lfingers 7.12502
lthumb 39.7372 -0.618431
rfemur 0 0 0
rtibia 0
rfoot 0 0
rtoes 0
lfemur -6.67018 -6.9805 -11.0014
ltibia 23.1846
lfoot -25.194 16.9119
ltoes -53.953
483
root -0.56639 18.7344 5.72352 3.69539 -2.76093 -3.77648
lowerback 3.57081 1.83324 -3.26324
upperback 0.547746 2.29544 -1.21668
thorax -1.51652 1.15951 0.466717
lowerneck -13.854 -2.5887 -1.52444
upperneck 34.0382 -4.94248 4.40122
head 14.0879 -1.75166 1.25383
rclavicle -2.33572e-014 -3.18055e-014
rhumerus -21.4227 38.0324 -95.4197
rradius 84.3459
rwrist 16.3
rhand -9.71437 -63.563
rfingers 7.12502
rthumb 16.2587 -267.099
lclavicle -2.33572e-014 -3.18055e-014
lhumerus -9.49661 -30.174 85.2715
lradius 79.4675
lwrist -4.60593
lhand 14.9527 -25.9477
lfingers 7.12502
lthumb 39.8071 -0.663795
rfemur 0 0 0
rtibia 0
rfoot 0 0
rtoes 0
lfemur -6.56197 -6.78878 -10.8307
ltibia 23.1896
lfoot -24.9868 16.4263
ltoes -54.1442
484
root -0.573008 18.7341 5.72694 3.68259 -2.6749 -3.79424
lowerback 3.56914 1.84191 -3.36702
upperback 0.525053 2.30342 -1.15416
thorax -1.54581 1.16476 0.587743
lowerneck -13.7336 -2.62219 -1.50797
upperneck 33.959 -4.9559 4.30161
head 14.0214 -1.77162 1.20894
rclavicle -7.45443e-015 5.56597e-015
rhumerus -21.4524 38.0272 -95.353
rradius 84.3727
rwrist 16.2623
rhand -9.42591 -63.6365
rfingers 7.12502
rthumb 16.5364 -267.048
lclavicle -7.45443e-015 5.56597e-015
lhumerus -9.62457 -30.1909 85.4333
lradius 79.5317
lwrist -4.63504
lhand 15.0507 -25.9017
lfingers 7.12502
lthumb 39.8994 -0.645325
rfemur 0 0 0
rtibia 0
rfoot 0 0
rtoes 0
lfemur -6.55032 -6.78603 -10.766
ltibia 23.1883
lfoot -24.9315 16.3036
ltoes -54.1564
